<mxfile host="app.diagrams.net" modified="2022-04-03T20:40:50.960Z" agent="5.0 (Windows NT 10.0; Win64; x64) AppleWebKit/537.36 (KHTML, like Gecko) Chrome/100.0.4896.60 Safari/537.36" etag="uwADMWaZzF3uSmzRtJLC" version="16.2.4" type="github">
  <diagram id="cnEnw0kDGCD_YMDAbp0f" name="Page-1">
    <mxGraphModel dx="4063" dy="2209" grid="1" gridSize="10" guides="1" tooltips="1" connect="1" arrows="1" fold="1" page="1" pageScale="1" pageWidth="827" pageHeight="1169" math="0" shadow="0">
      <root>
        <mxCell id="0" />
        <mxCell id="1" parent="0" />
        <mxCell id="t8Sm0MTU18PulPnbNp05-1" value="" style="shape=mxgraph.cisco.computers_and_peripherals.pc;sketch=0;html=1;pointerEvents=1;dashed=0;fillColor=#036897;strokeColor=#ffffff;strokeWidth=2;verticalLabelPosition=bottom;verticalAlign=top;align=center;outlineConnect=0;" vertex="1" parent="1">
          <mxGeometry x="60" y="60" width="78" height="70" as="geometry" />
        </mxCell>
        <mxCell id="t8Sm0MTU18PulPnbNp05-3" value="" style="shape=mxgraph.cisco.switches.workgroup_switch;sketch=0;html=1;pointerEvents=1;dashed=0;fillColor=#036897;strokeColor=#ffffff;strokeWidth=2;verticalLabelPosition=bottom;verticalAlign=top;align=center;outlineConnect=0;" vertex="1" parent="1">
          <mxGeometry x="37" y="225" width="101" height="50" as="geometry" />
        </mxCell>
        <mxCell id="t8Sm0MTU18PulPnbNp05-4" value="" style="shape=mxgraph.cisco.switches.layer_3_switch;sketch=0;html=1;pointerEvents=1;dashed=0;fillColor=#036897;strokeColor=#ffffff;strokeWidth=2;verticalLabelPosition=bottom;verticalAlign=top;align=center;outlineConnect=0;" vertex="1" parent="1">
          <mxGeometry x="55.5" y="356" width="64" height="64" as="geometry" />
        </mxCell>
        <mxCell id="t8Sm0MTU18PulPnbNp05-5" value="" style="shape=mxgraph.cisco.switches.workgroup_switch;sketch=0;html=1;pointerEvents=1;dashed=0;fillColor=#036897;strokeColor=#ffffff;strokeWidth=2;verticalLabelPosition=bottom;verticalAlign=top;align=center;outlineConnect=0;" vertex="1" parent="1">
          <mxGeometry x="32.5" y="520" width="101" height="50" as="geometry" />
        </mxCell>
        <mxCell id="t8Sm0MTU18PulPnbNp05-6" value="" style="shape=mxgraph.cisco.computers_and_peripherals.pc;sketch=0;html=1;pointerEvents=1;dashed=0;fillColor=#036897;strokeColor=#ffffff;strokeWidth=2;verticalLabelPosition=bottom;verticalAlign=top;align=center;outlineConnect=0;" vertex="1" parent="1">
          <mxGeometry x="44" y="660" width="78" height="70" as="geometry" />
        </mxCell>
        <mxCell id="t8Sm0MTU18PulPnbNp05-12" value="" style="shape=partialRectangle;whiteSpace=wrap;html=1;left=0;right=0;fillColor=none;" vertex="1" parent="1">
          <mxGeometry x="170" y="420" width="1390" height="150" as="geometry" />
        </mxCell>
        <mxCell id="t8Sm0MTU18PulPnbNp05-14" value="" style="shape=partialRectangle;whiteSpace=wrap;html=1;left=0;right=0;fillColor=none;" vertex="1" parent="1">
          <mxGeometry x="160" y="120" width="600" height="150" as="geometry" />
        </mxCell>
        <mxCell id="t8Sm0MTU18PulPnbNp05-18" value="" style="endArrow=none;html=1;rounded=0;shadow=0;strokeWidth=2;" edge="1" parent="1">
          <mxGeometry width="50" height="50" relative="1" as="geometry">
            <mxPoint x="190" y="120" as="sourcePoint" />
            <mxPoint x="480" y="120" as="targetPoint" />
          </mxGeometry>
        </mxCell>
        <mxCell id="t8Sm0MTU18PulPnbNp05-19" value="" style="endArrow=none;html=1;rounded=0;shadow=0;strokeWidth=2;" edge="1" parent="1">
          <mxGeometry width="50" height="50" relative="1" as="geometry">
            <mxPoint x="240" y="268.33" as="sourcePoint" />
            <mxPoint x="530" y="268" as="targetPoint" />
          </mxGeometry>
        </mxCell>
        <mxCell id="t8Sm0MTU18PulPnbNp05-20" value="" style="endArrow=none;html=1;rounded=0;shadow=0;strokeWidth=2;" edge="1" parent="1">
          <mxGeometry width="50" height="50" relative="1" as="geometry">
            <mxPoint x="190" y="120" as="sourcePoint" />
            <mxPoint x="240" y="268.33" as="targetPoint" />
          </mxGeometry>
        </mxCell>
        <mxCell id="t8Sm0MTU18PulPnbNp05-21" value="" style="endArrow=none;html=1;rounded=0;shadow=0;strokeWidth=2;" edge="1" parent="1">
          <mxGeometry width="50" height="50" relative="1" as="geometry">
            <mxPoint x="478" y="120" as="sourcePoint" />
            <mxPoint x="528" y="268.33" as="targetPoint" />
          </mxGeometry>
        </mxCell>
        <mxCell id="t8Sm0MTU18PulPnbNp05-24" value="Trama 8 02.3" style="text;html=1;strokeColor=none;fillColor=none;align=center;verticalAlign=middle;whiteSpace=wrap;rounded=0;" vertex="1" parent="1">
          <mxGeometry x="320" y="180" width="80" height="30" as="geometry" />
        </mxCell>
        <mxCell id="t8Sm0MTU18PulPnbNp05-25" value="" style="endArrow=none;html=1;rounded=0;shadow=0;strokeColor=default;strokeWidth=1;" edge="1" parent="1">
          <mxGeometry width="50" height="50" relative="1" as="geometry">
            <mxPoint x="190" y="100" as="sourcePoint" />
            <mxPoint x="240" y="100" as="targetPoint" />
          </mxGeometry>
        </mxCell>
        <mxCell id="t8Sm0MTU18PulPnbNp05-27" value="" style="endArrow=none;html=1;rounded=0;shadow=0;strokeColor=default;strokeWidth=1;" edge="1" parent="1">
          <mxGeometry width="50" height="50" relative="1" as="geometry">
            <mxPoint x="240" y="110" as="sourcePoint" />
            <mxPoint x="240" y="90" as="targetPoint" />
            <Array as="points">
              <mxPoint x="240" y="100" />
            </Array>
          </mxGeometry>
        </mxCell>
        <mxCell id="t8Sm0MTU18PulPnbNp05-28" value="" style="endArrow=none;html=1;rounded=0;shadow=0;strokeColor=default;strokeWidth=1;" edge="1" parent="1">
          <mxGeometry width="50" height="50" relative="1" as="geometry">
            <mxPoint x="190" y="110" as="sourcePoint" />
            <mxPoint x="190" y="90" as="targetPoint" />
            <Array as="points" />
          </mxGeometry>
        </mxCell>
        <mxCell id="t8Sm0MTU18PulPnbNp05-29" value="" style="rounded=0;whiteSpace=wrap;html=1;strokeWidth=2;" vertex="1" parent="1">
          <mxGeometry x="530" y="230" width="70" height="40" as="geometry" />
        </mxCell>
        <mxCell id="t8Sm0MTU18PulPnbNp05-30" value="" style="endArrow=none;html=1;rounded=0;shadow=0;strokeWidth=2;" edge="1" parent="1">
          <mxGeometry width="50" height="50" relative="1" as="geometry">
            <mxPoint x="600" y="270" as="sourcePoint" />
            <mxPoint x="890" y="270" as="targetPoint" />
          </mxGeometry>
        </mxCell>
        <mxCell id="t8Sm0MTU18PulPnbNp05-31" value="" style="endArrow=none;html=1;rounded=0;shadow=0;strokeWidth=2;entryX=0;entryY=1;entryDx=0;entryDy=0;" edge="1" parent="1" target="t8Sm0MTU18PulPnbNp05-35">
          <mxGeometry width="50" height="50" relative="1" as="geometry">
            <mxPoint x="650" y="418.3299999999999" as="sourcePoint" />
            <mxPoint x="940" y="418" as="targetPoint" />
          </mxGeometry>
        </mxCell>
        <mxCell id="t8Sm0MTU18PulPnbNp05-32" value="" style="endArrow=none;html=1;rounded=0;shadow=0;strokeWidth=2;" edge="1" parent="1">
          <mxGeometry width="50" height="50" relative="1" as="geometry">
            <mxPoint x="600" y="270" as="sourcePoint" />
            <mxPoint x="650" y="418.3299999999999" as="targetPoint" />
          </mxGeometry>
        </mxCell>
        <mxCell id="t8Sm0MTU18PulPnbNp05-33" value="" style="endArrow=none;html=1;rounded=0;shadow=0;strokeWidth=2;" edge="1" parent="1">
          <mxGeometry width="50" height="50" relative="1" as="geometry">
            <mxPoint x="755" y="270" as="sourcePoint" />
            <mxPoint x="815" y="418" as="targetPoint" />
            <Array as="points" />
          </mxGeometry>
        </mxCell>
        <mxCell id="t8Sm0MTU18PulPnbNp05-34" value="Q Tagged 802.1q" style="text;html=1;strokeColor=none;fillColor=none;align=center;verticalAlign=middle;whiteSpace=wrap;rounded=0;" vertex="1" parent="1">
          <mxGeometry x="647" y="326" width="113" height="30" as="geometry" />
        </mxCell>
        <mxCell id="t8Sm0MTU18PulPnbNp05-35" value="" style="rounded=0;whiteSpace=wrap;html=1;strokeWidth=2;" vertex="1" parent="1">
          <mxGeometry x="820" y="380" width="70" height="40" as="geometry" />
        </mxCell>
        <mxCell id="t8Sm0MTU18PulPnbNp05-36" value="" style="endArrow=none;html=1;rounded=0;shadow=0;strokeWidth=2;" edge="1" parent="1">
          <mxGeometry width="50" height="50" relative="1" as="geometry">
            <mxPoint x="1169" y="569" as="sourcePoint" />
            <mxPoint x="1459" y="569" as="targetPoint" />
          </mxGeometry>
        </mxCell>
        <mxCell id="t8Sm0MTU18PulPnbNp05-38" value="" style="endArrow=none;html=1;rounded=0;shadow=0;strokeWidth=2;" edge="1" parent="1">
          <mxGeometry width="50" height="50" relative="1" as="geometry">
            <mxPoint x="1169" y="569" as="sourcePoint" />
            <mxPoint x="1219" y="717.3299999999999" as="targetPoint" />
          </mxGeometry>
        </mxCell>
        <mxCell id="t8Sm0MTU18PulPnbNp05-39" value="" style="endArrow=none;html=1;rounded=0;shadow=0;strokeWidth=2;" edge="1" parent="1">
          <mxGeometry width="50" height="50" relative="1" as="geometry">
            <mxPoint x="1457" y="569" as="sourcePoint" />
            <mxPoint x="1507" y="717.3299999999999" as="targetPoint" />
          </mxGeometry>
        </mxCell>
        <mxCell id="t8Sm0MTU18PulPnbNp05-41" value="" style="endArrow=none;html=1;rounded=0;shadow=0;strokeWidth=2;entryX=0;entryY=1;entryDx=0;entryDy=0;" edge="1" parent="1">
          <mxGeometry width="50" height="50" relative="1" as="geometry">
            <mxPoint x="940" y="569.3299999999999" as="sourcePoint" />
            <mxPoint x="1140" y="569" as="targetPoint" />
          </mxGeometry>
        </mxCell>
        <mxCell id="t8Sm0MTU18PulPnbNp05-42" value="" style="endArrow=none;html=1;rounded=0;shadow=0;strokeWidth=2;entryX=0.577;entryY=1.017;entryDx=0;entryDy=0;entryPerimeter=0;" edge="1" parent="1">
          <mxGeometry width="50" height="50" relative="1" as="geometry">
            <mxPoint x="890" y="418" as="sourcePoint" />
            <mxPoint x="942.0299999999997" y="572.55" as="targetPoint" />
          </mxGeometry>
        </mxCell>
        <mxCell id="t8Sm0MTU18PulPnbNp05-43" value="" style="endArrow=none;html=1;rounded=0;shadow=0;strokeWidth=2;entryX=0.718;entryY=1.001;entryDx=0;entryDy=0;entryPerimeter=0;" edge="1" parent="1">
          <mxGeometry width="50" height="50" relative="1" as="geometry">
            <mxPoint x="1041" y="418" as="sourcePoint" />
            <mxPoint x="1099.02" y="570.1499999999999" as="targetPoint" />
            <Array as="points" />
          </mxGeometry>
        </mxCell>
        <mxCell id="t8Sm0MTU18PulPnbNp05-44" value="Q Tagged 802.1" style="text;html=1;strokeColor=none;fillColor=none;align=center;verticalAlign=middle;whiteSpace=wrap;rounded=0;" vertex="1" parent="1">
          <mxGeometry x="940" y="480" width="113" height="30" as="geometry" />
        </mxCell>
        <mxCell id="t8Sm0MTU18PulPnbNp05-45" value="" style="rounded=0;whiteSpace=wrap;html=1;strokeWidth=2;" vertex="1" parent="1">
          <mxGeometry x="1100" y="530" width="70" height="40" as="geometry" />
        </mxCell>
        <mxCell id="t8Sm0MTU18PulPnbNp05-47" value="Q Tagged 802.3" style="text;html=1;strokeColor=none;fillColor=none;align=center;verticalAlign=middle;whiteSpace=wrap;rounded=0;" vertex="1" parent="1">
          <mxGeometry x="1299" y="640" width="113" height="30" as="geometry" />
        </mxCell>
        <mxCell id="t8Sm0MTU18PulPnbNp05-48" value="" style="endArrow=none;html=1;rounded=0;shadow=0;strokeColor=default;strokeWidth=1;" edge="1" parent="1">
          <mxGeometry width="50" height="50" relative="1" as="geometry">
            <mxPoint x="160" y="720" as="sourcePoint" />
            <mxPoint x="1600" y="720" as="targetPoint" />
          </mxGeometry>
        </mxCell>
        <mxCell id="t8Sm0MTU18PulPnbNp05-49" value="Tiempo&lt;br&gt;propagación" style="text;html=1;strokeColor=none;fillColor=none;align=left;verticalAlign=middle;whiteSpace=wrap;rounded=0;" vertex="1" parent="1">
          <mxGeometry x="180" y="60" width="60" height="30" as="geometry" />
        </mxCell>
        <mxCell id="t8Sm0MTU18PulPnbNp05-50" value="" style="endArrow=none;html=1;rounded=0;shadow=0;strokeColor=default;strokeWidth=1;" edge="1" parent="1">
          <mxGeometry width="50" height="50" relative="1" as="geometry">
            <mxPoint x="250" y="100" as="sourcePoint" />
            <mxPoint x="510" y="100" as="targetPoint" />
          </mxGeometry>
        </mxCell>
        <mxCell id="t8Sm0MTU18PulPnbNp05-51" value="" style="endArrow=none;html=1;rounded=0;shadow=0;strokeColor=default;strokeWidth=1;" edge="1" parent="1">
          <mxGeometry width="50" height="50" relative="1" as="geometry">
            <mxPoint x="510" y="110" as="sourcePoint" />
            <mxPoint x="510" y="110" as="targetPoint" />
            <Array as="points">
              <mxPoint x="510" y="90" />
            </Array>
          </mxGeometry>
        </mxCell>
        <mxCell id="t8Sm0MTU18PulPnbNp05-52" value="" style="endArrow=none;html=1;rounded=0;shadow=0;strokeColor=default;strokeWidth=1;" edge="1" parent="1">
          <mxGeometry width="50" height="50" relative="1" as="geometry">
            <mxPoint x="250" y="110" as="sourcePoint" />
            <mxPoint x="250" y="90" as="targetPoint" />
            <Array as="points" />
          </mxGeometry>
        </mxCell>
        <mxCell id="t8Sm0MTU18PulPnbNp05-53" value="" style="endArrow=none;html=1;rounded=0;shadow=0;strokeColor=default;strokeWidth=1;" edge="1" parent="1">
          <mxGeometry width="50" height="50" relative="1" as="geometry">
            <mxPoint x="520" y="100" as="sourcePoint" />
            <mxPoint x="600" y="100" as="targetPoint" />
          </mxGeometry>
        </mxCell>
        <mxCell id="t8Sm0MTU18PulPnbNp05-54" value="" style="endArrow=none;html=1;rounded=0;shadow=0;strokeColor=default;strokeWidth=1;" edge="1" parent="1">
          <mxGeometry width="50" height="50" relative="1" as="geometry">
            <mxPoint x="600" y="110" as="sourcePoint" />
            <mxPoint x="600" y="90" as="targetPoint" />
            <Array as="points">
              <mxPoint x="600" y="100" />
            </Array>
          </mxGeometry>
        </mxCell>
        <mxCell id="t8Sm0MTU18PulPnbNp05-55" value="" style="endArrow=none;html=1;rounded=0;shadow=0;strokeColor=default;strokeWidth=1;" edge="1" parent="1">
          <mxGeometry width="50" height="50" relative="1" as="geometry">
            <mxPoint x="520" y="110" as="sourcePoint" />
            <mxPoint x="520" y="90" as="targetPoint" />
            <Array as="points" />
          </mxGeometry>
        </mxCell>
        <mxCell id="t8Sm0MTU18PulPnbNp05-56" value="Tiempo&lt;br&gt;proceso" style="text;html=1;strokeColor=none;fillColor=none;align=left;verticalAlign=middle;whiteSpace=wrap;rounded=0;" vertex="1" parent="1">
          <mxGeometry x="520" y="60" width="60" height="30" as="geometry" />
        </mxCell>
        <mxCell id="t8Sm0MTU18PulPnbNp05-57" value="Transmisión" style="text;html=1;strokeColor=none;fillColor=none;align=left;verticalAlign=middle;whiteSpace=wrap;rounded=0;" vertex="1" parent="1">
          <mxGeometry x="330" y="60" width="60" height="30" as="geometry" />
        </mxCell>
        <mxCell id="t8Sm0MTU18PulPnbNp05-59" value="" style="endArrow=none;html=1;rounded=0;shadow=0;strokeColor=default;strokeWidth=2;" edge="1" parent="1">
          <mxGeometry width="50" height="50" relative="1" as="geometry">
            <mxPoint x="890" y="420" as="sourcePoint" />
            <mxPoint x="1040" y="420" as="targetPoint" />
          </mxGeometry>
        </mxCell>
        <mxCell id="t8Sm0MTU18PulPnbNp05-60" value="" style="rounded=0;whiteSpace=wrap;html=1;strokeWidth=2;" vertex="1" parent="1">
          <mxGeometry x="1510" y="680" width="70" height="40" as="geometry" />
        </mxCell>
      </root>
    </mxGraphModel>
  </diagram>
</mxfile>
